<?xml version="1.0"?>
<svg xmlns="http://www.w3.org/2000/svg" xmlns:xlink="http://www.w3.org/1999/xlink" xmlns:svgjs="http://svgjs.com/svgjs" version="1.1" width="512" height="512" x="0" y="0" viewBox="0 0 512.246 512.246" style="enable-background:new 0 0 512 512" xml:space="preserve" class=""><g><g xmlns="http://www.w3.org/2000/svg"><path d="m256.123 138.697 60.655-56.135.418-.402c9.09-9.09 14.096-21.176 14.096-34.031s-5.006-24.941-14.096-34.031c-9.09-9.092-21.176-14.098-34.031-14.098-9.788 0-19.128 2.902-27.042 8.298-7.913-5.397-17.254-8.298-27.041-8.298-12.855 0-24.941 5.006-34.032 14.097-18.765 18.765-18.765 49.298 0 68.062zm-39.859-103.387c3.424-3.424 7.976-5.31 12.818-5.31s9.394 1.886 12.818 5.31l14.223 14.224 14.224-14.224c3.424-3.424 7.976-5.31 12.818-5.31s9.395 1.886 12.819 5.31c7.01 7.01 7.068 18.379.174 25.46l-40.034 37.051-40.035-37.051c-3.314-3.403-5.135-7.882-5.135-12.642 0-4.842 1.885-9.394 5.31-12.818z" fill="#ff6900" data-original="#000000" style=""/><path d="m438.616 270 51.527-85.878-196.544-35.735-37.476 62.459-37.476-62.459-196.544 35.735 51.527 85.878-51.527 85.878 54.02 9.822v113.818l180 32.728 180-32.728v-113.818l54.02-9.822zm-263.641 0 81.148-14.754 81.148 14.754-81.148 14.754zm238.624 16.614 28.504 47.507-133.456 24.264-28.504-47.507zm-104.952-105 133.456 24.264-28.504 47.507-133.456-24.264zm-105.048 0 28.504 47.507-133.456 24.265-28.504-47.507zm-104.952 105 133.456 24.264-28.504 47.507-133.456-24.263zm7.476 84.541 112.524 20.459 22.476-37.459v124.872l-135-24.545zm300 83.326-135 24.545v-124.871l22.476 37.459 112.524-20.459z" fill="#ff6900" data-original="#000000" style=""/></g></g></svg>
